<svg width="21" height="25" viewBox="0 0 21 25" fill="none" xmlns="http://www.w3.org/2000/svg">
<path d="M17.7502 0.416748C18.3911 0.416748 19.0058 0.67136 19.459 1.12457C19.9122 1.57779 20.1668 2.19247 20.1668 2.83341V22.1667C20.1668 22.8077 19.9122 23.4224 19.459 23.8756C19.0058 24.3288 18.3911 24.5834 17.7502 24.5834H3.25016C2.60922 24.5834 1.99453 24.3288 1.54132 23.8756C1.08811 23.4224 0.833496 22.8077 0.833496 22.1667V2.83341C0.833496 2.19247 1.08811 1.57779 1.54132 1.12457C1.99453 0.67136 2.60922 0.416748 3.25016 0.416748H17.7502ZM17.7502 2.83341H11.7085V12.5001L8.68766 9.78133L5.66683 12.5001V2.83341H3.25016V22.1667H17.7502V2.83341Z" fill="#E46F50"/>
</svg>
