<svg width="1224" height="340" viewBox="0 0 1224 340" fill="none" xmlns="http://www.w3.org/2000/svg">
<g clip-path="url(#clip0_8_9253)">
<rect width="1224" height="340" transform="matrix(-1 0 0 1 1224 0)" fill="url(#paint0_radial_8_9253)"/>
<path d="M432.587 166.486C433.443 149.918 442.907 125.979 475.961 119.309C506.602 113.126 531.88 130.008 540.033 137.895L571.343 160.369C586.418 172.886 619.628 192.088 639.371 184.828C661.997 176.509 660.008 164.012 657.807 155.958C655.605 147.905 634.048 129.679 613.154 151.186C596.439 168.392 595.321 200.889 596.851 214.986V214.986C602.515 241.22 615.634 265.261 634.632 284.219L637.906 287.486C655.386 299.741 694.966 310.996 729.342 304.428C746.062 302.119 781.2 293.7 788 278.5" stroke="#FAB07E" stroke-width="7" stroke-linecap="round" stroke-dasharray="20 20"/>
<path d="M1017.69 239.115C1105.19 202.289 1195.28 253.104 1227 268.548V397.372L703 438C711.773 428.96 848.514 369.689 875.83 348.781C954.752 288.372 947.759 268.549 1017.69 239.115Z" fill="url(#paint1_linear_8_9253)"/>
<path opacity="0.5" d="M390.647 41.3078C494.812 43.3344 536.316 9.69354 539.559 -13.0039L-82.5947 -7.32954V21.4476V253.286C-11.2598 237.073 -7.20667 226.535 31.7032 197.758C70.6131 168.981 95.9855 104.131 133.679 72.5168C171.373 40.9025 264.19 34.8229 390.647 41.3078Z" fill="url(#paint2_linear_8_9253)"/>
<path opacity="0.5" d="M1122.62 270.327C1159.91 260.927 1217.06 267.895 1241.38 273.975V348.149H992.518C1003.46 338.151 1029.48 314.428 1049.26 301.134C1070.34 286.968 1072.77 282.895 1122.62 270.327Z" fill="url(#paint3_linear_8_9253)"/>
<path d="M421.359 25.448C497.882 32.9057 536.198 -4.40994 545.79 -24L-124.595 -19.9469C-127.838 26.3937 -131.648 121.669 -120.948 132.045C-110.247 142.421 -55.4221 143.934 -29.3471 143.394C27.3965 144.042 78.8711 109.077 97.5154 91.5138C114.809 73.8152 158.474 34.1217 194.79 16.9365C240.185 -4.54504 325.706 16.1258 421.359 25.448Z" fill="url(#paint4_linear_8_9253)"/>
<path d="M1321.37 223.896C1302.32 244.162 1249.38 284.612 1190.05 284.288C1115.88 283.883 1093.99 276.992 1070.89 287.125C1047.78 297.258 1015.5 321.897 1000.5 345C988.503 363.482 1005.5 359.541 1008.06 358.865" stroke="#FFF8FB" stroke-width="3" stroke-dasharray="2 2"/>
<path d="M1356.8 283.91C1330.46 297.826 1265.93 324.603 1218.59 320.388C1159.41 315.119 1081.19 292.016 1056.46 292.016C1031.74 292.016 1000.13 295.259 981.482 317.551C966.567 335.385 960.946 348.22 960.001 352.408" stroke="#FFF8FB" stroke-width="3" stroke-dasharray="2 2"/>
<path d="M273.355 95.5059H411.616C415.978 95.5059 419.766 99.0465 420.076 103.412L433.42 290.806C433.73 295.172 430.448 298.713 426.085 298.713H287.824C283.462 298.713 279.674 295.172 279.364 290.806L266.02 103.412C265.71 99.0465 268.992 95.5059 273.355 95.5059Z" fill="#5A7FED"/>
<path d="M277.465 95.5078H415.726C420.089 95.5078 423.876 99.0485 424.186 103.414L437.53 290.808C437.84 295.174 434.558 298.714 430.196 298.714H291.935C287.572 298.714 283.785 295.174 283.474 290.808L270.131 103.414C269.821 99.0485 273.102 95.5078 277.465 95.5078Z" fill="#8BA8FF"/>
<path d="M430.196 299.169H291.935C287.349 299.169 283.351 295.432 283.023 290.841L269.679 103.447C269.519 101.204 270.245 99.093 271.723 97.5064C273.192 95.9257 275.234 95.0586 277.462 95.0586H415.723C420.308 95.0586 424.307 98.795 424.635 103.386L437.979 290.78C438.138 293.023 437.413 295.134 435.934 296.721C434.462 298.301 432.424 299.169 430.196 299.169ZM277.465 95.9588C275.487 95.9588 273.683 96.7266 272.386 98.1206C271.079 99.5236 270.441 101.39 270.582 103.383L283.926 290.777C284.221 294.905 287.813 298.265 291.935 298.265H430.196C432.174 298.265 433.977 297.498 435.275 296.104C436.582 294.701 437.22 292.834 437.078 290.841L423.735 103.447C423.44 99.3188 419.848 95.9588 415.726 95.9588H277.465Z" fill="#8DAAFF"/>
<path d="M300.632 278.435H421.365L409.231 108.055H288.499L300.632 278.435Z" fill="white"/>
<path d="M300.632 278.435H421.365L409.231 108.055H288.499L300.632 278.435Z" fill="white"/>
<path d="M307.114 137.383H394.791L394.24 129.666H306.566L307.114 137.383Z" fill="#8BA8FF"/>
<path d="M305.709 182.62H344.804L342.016 143.477H302.921L305.709 182.62Z" fill="#8BA8FF"/>
<path d="M352.798 149.063H403.174L402.777 143.478H352.4L352.798 149.063Z" fill="#8BA8FF"/>
<path d="M353.434 158.016H403.813L403.416 152.427H353.036L353.434 158.016Z" fill="#8BA8FF"/>
<path d="M354.071 166.962H404.451L404.053 161.377H353.674L354.071 166.962Z" fill="#8BA8FF"/>
<path d="M354.511 176.388H404.89L404.493 170.803H354.113L354.511 176.388Z" fill="#8BA8FF"/>
<path d="M354.728 186.219H405.107L404.709 180.631H354.33L354.728 186.219Z" fill="#8BA8FF"/>
<path d="M321.186 172.902C319.89 171.933 319.654 170.084 320.663 168.82L331.974 154.65C332.952 153.405 334.787 153.204 336.005 154.193C337.251 155.17 337.451 157.005 336.463 158.223L325.141 172.396C324.175 173.605 322.424 173.829 321.186 172.902Z" fill="white"/>
<path d="M324.96 172.524C325.815 171.456 325.64 169.896 324.57 169.043L315.546 161.85C315.118 161.52 314.573 161.366 314.039 161.464C310.986 162.116 310.6 165.288 312.424 166.724L320.317 173.049C321.763 174.197 323.839 173.959 324.96 172.524Z" fill="white"/>
<path d="M358.511 211.699H403.529L403.321 208.775H358.304L358.511 211.699Z" fill="#8BA8FF"/>
<path d="M358.845 216.385H403.863L403.655 213.459H358.638L358.845 216.385Z" fill="#8BA8FF"/>
<path d="M359.179 221.072H404.197L403.989 218.148H358.972L359.179 221.072Z" fill="#8BA8FF"/>
<path d="M360.035 233.078H405.052L404.844 230.154H359.827L360.035 233.078Z" fill="#8BA8FF"/>
<path d="M360.369 237.761H405.386L405.178 234.838H360.161L360.369 237.761Z" fill="#8BA8FF"/>
<path d="M360.703 242.45H405.72L405.512 239.523H360.495L360.703 242.45Z" fill="#8BA8FF"/>
<path d="M361.558 254.456H406.576L406.368 251.529H361.351L361.558 254.456Z" fill="#8BA8FF"/>
<path d="M361.892 259.14H406.91L406.699 256.217H361.682L361.892 259.14Z" fill="#8BA8FF"/>
<path d="M362.223 263.826H407.241L407.033 260.902H362.016L362.223 263.826Z" fill="#8BA8FF"/>
<path d="M308.926 211.699H353.944L353.736 208.775H308.719L308.926 211.699Z" fill="#8BA8FF"/>
<path d="M309.26 216.385H354.278L354.07 213.459H309.053L309.26 216.385Z" fill="#8BA8FF"/>
<path d="M309.594 221.072H354.612L354.404 218.148H309.387L309.594 221.072Z" fill="#8BA8FF"/>
<path d="M310.45 233.079H355.467L355.259 230.152H310.242L310.45 233.079Z" fill="#8BA8FF"/>
<path d="M310.784 237.763H355.801L355.593 234.84H310.576L310.784 237.763Z" fill="#8BA8FF"/>
<path d="M311.118 242.452H356.135L355.924 239.525H310.907L311.118 242.452Z" fill="#8BA8FF"/>
<path d="M311.973 254.456H356.991L356.78 251.529H311.763L311.973 254.456Z" fill="#8BA8FF"/>
<path d="M312.304 259.139H357.322L357.114 256.213H312.097L312.304 259.139Z" fill="#8BA8FF"/>
<path d="M312.639 263.826H357.657L357.449 260.902H312.432L312.639 263.826Z" fill="#8BA8FF"/>
<path d="M332.552 203.568H377.569L377.491 198.449H332.474L332.552 203.568Z" fill="#8BA8FF"/>
<path d="M306.916 117.959H386.31C389.248 117.959 391.461 115.574 391.251 112.633L390.543 102.685C390.067 95.9861 384.254 90.5547 377.564 90.5547H311.763C305.07 90.5547 300.033 95.9861 300.509 102.685L301.216 112.633C301.427 115.574 303.977 117.959 306.916 117.959Z" fill="white"/>
<path d="M328.811 76.3543L330.461 99.5253C330.647 102.139 332.915 104.255 335.522 104.255H355.751C358.362 104.255 360.325 102.136 360.141 99.5253L358.491 76.3543C357.907 68.1469 350.79 61.4961 342.591 61.4961C334.393 61.4961 328.224 68.1499 328.808 76.3543H328.811ZM338.801 73.0515C338.62 70.4983 340.538 68.4299 343.088 68.4299C345.638 68.4299 347.851 70.4983 348.035 73.0515C348.215 75.6046 346.297 77.673 343.747 77.673C341.197 77.673 338.984 75.6046 338.801 73.0515Z" fill="white"/>
<path d="M308.497 117.959H387.891C390.829 117.959 393.042 115.574 392.832 112.633L392.124 102.685C391.648 95.9861 385.835 90.5547 379.145 90.5547H313.344C306.651 90.5547 301.614 95.9861 302.09 102.685L302.797 112.633C303.008 115.574 305.558 117.959 308.497 117.959Z" fill="#828FEB"/>
<path d="M387.89 118.411H308.496C305.332 118.411 302.571 115.834 302.345 112.666L301.637 102.719C301.396 99.3436 302.489 96.1702 304.711 93.7857C306.921 91.4132 309.986 90.1035 313.343 90.1035H379.144C386.057 90.1035 392.081 95.7337 392.575 102.655L393.282 112.603C393.394 114.157 392.891 115.617 391.864 116.716C390.847 117.809 389.435 118.414 387.89 118.414V118.411ZM313.34 91.0037C310.239 91.0037 307.409 92.2081 305.371 94.3969C303.32 96.5978 302.315 99.5303 302.537 102.652L303.245 112.6C303.438 115.307 305.792 117.508 308.493 117.508H387.887C389.179 117.508 390.356 117.008 391.202 116.099C392.054 115.183 392.473 113.964 392.379 112.666L391.672 102.719C391.211 96.2606 385.59 91.0068 379.141 91.0068H313.34V91.0037Z" fill="white"/>
<path d="M330.39 76.3543L332.04 99.5253C332.227 102.139 334.494 104.255 337.101 104.255H357.33C359.941 104.255 361.904 102.136 361.72 99.5253L360.07 76.3543C359.486 68.1469 352.369 61.4961 344.17 61.4961C335.972 61.4961 329.803 68.1499 330.387 76.3543H330.39ZM340.38 73.0515C340.199 70.4983 342.117 68.4299 344.667 68.4299C347.217 68.4299 349.43 70.4983 349.614 73.0515C349.794 75.6046 347.877 77.673 345.326 77.673C342.776 77.673 340.563 75.6046 340.38 73.0515Z" fill="#828FEB"/>
<path d="M357.331 104.706H337.102C334.266 104.706 331.791 102.397 331.589 99.5549L329.939 76.384C329.647 72.2773 330.975 68.4204 333.675 65.518C336.364 62.6307 340.091 61.041 344.171 61.041C352.586 61.041 359.92 67.8936 360.52 76.3207L362.17 99.4917C362.269 100.886 361.817 102.195 360.899 103.183C359.984 104.164 358.716 104.706 357.331 104.706ZM344.171 61.9473C340.344 61.9473 336.852 63.4346 334.335 66.1353C331.806 68.851 330.562 72.4699 330.839 76.3207L332.489 99.4917C332.658 101.87 334.726 103.803 337.102 103.803H357.331C358.463 103.803 359.496 103.364 360.237 102.569C360.983 101.768 361.351 100.699 361.269 99.5579L359.619 76.387C359.053 68.4265 352.123 61.9473 344.171 61.9473ZM345.324 78.1272C342.545 78.1272 340.125 75.8661 339.929 73.0841C339.833 71.7203 340.275 70.4347 341.172 69.4682C342.07 68.5047 343.31 67.9748 344.665 67.9748C347.444 67.9748 349.864 70.2359 350.06 73.0179C350.156 74.3818 349.714 75.6644 348.817 76.6308C347.919 77.5943 346.679 78.1242 345.324 78.1242V78.1272ZM344.665 68.8811C343.56 68.8811 342.554 69.3086 341.832 70.0854C341.103 70.8652 340.748 71.9099 340.826 73.0209C340.992 75.3392 343.009 77.224 345.321 77.224C346.423 77.224 347.429 76.7964 348.154 76.0197C348.883 75.2399 349.238 74.1951 349.16 73.0841C348.994 70.7658 346.977 68.8811 344.665 68.8811Z" fill="white"/>
</g>
<defs>
<radialGradient id="paint0_radial_8_9253" cx="0" cy="0" r="1" gradientUnits="userSpaceOnUse" gradientTransform="translate(608.5 405.5) rotate(-91.11) scale(464.587 1672.51)">
<stop offset="0.367962" stop-color="#FCFCFC"/>
<stop offset="1" stop-color="#D2E7FF"/>
</radialGradient>
<linearGradient id="paint1_linear_8_9253" x1="728.275" y1="332.324" x2="1284.39" y2="187.514" gradientUnits="userSpaceOnUse">
<stop stop-color="#F28F74"/>
<stop offset="1" stop-color="#E8DCF3"/>
</linearGradient>
<linearGradient id="paint2_linear_8_9253" x1="228" y1="-79.5" x2="237.5" y2="245" gradientUnits="userSpaceOnUse">
<stop stop-color="#8BA8FF"/>
<stop offset="0.827083" stop-color="#D2E7FF"/>
</linearGradient>
<linearGradient id="paint3_linear_8_9253" x1="1138.5" y1="320" x2="1142.68" y2="473.063" gradientUnits="userSpaceOnUse">
<stop stop-color="#EDE9F0"/>
<stop offset="0.827083" stop-color="#8BA8FF"/>
</linearGradient>
<linearGradient id="paint4_linear_8_9253" x1="-95.5" y1="60" x2="551.8" y2="-214.338" gradientUnits="userSpaceOnUse">
<stop stop-color="#F28F74"/>
<stop offset="1" stop-color="#E8DCF3"/>
</linearGradient>
<clipPath id="clip0_8_9253">
<rect width="1224" height="340" fill="white"/>
</clipPath>
</defs>
</svg>
