<svg width="30" height="22" viewBox="0 0 30 22" fill="none" xmlns="http://www.w3.org/2000/svg">
<mask id="path-1-inside-1_2001_5939" fill="white">
<path d="M14.6703 0.354029L0.831509 10.2549C0.708082 10.3433 0.607481 10.4598 0.538031 10.5949C0.468581 10.7299 0.432279 10.8794 0.432129 11.0313V11.0335C0.432447 11.1859 0.469126 11.336 0.539117 11.4714C0.609108 11.6067 0.710391 11.7234 0.834549 11.8118L14.6734 21.6488C14.8165 21.7505 14.9848 21.8108 15.1599 21.8231C15.335 21.8354 15.5101 21.7991 15.6659 21.7184C15.822 21.6381 15.9529 21.5163 16.0441 21.3663C16.1354 21.2164 16.1835 21.0442 16.1831 20.8687V16.2392L28.6125 16.2395C28.7381 16.2396 28.8624 16.2149 28.9784 16.1669C29.0944 16.1188 29.1998 16.0484 29.2886 15.9596C29.3773 15.8708 29.4477 15.7654 29.4957 15.6494C29.5437 15.5334 29.5683 15.409 29.5682 15.2835L29.5679 6.71789C29.5679 6.59229 29.5432 6.46791 29.4952 6.35186C29.4471 6.23582 29.3766 6.13038 29.2878 6.04159C29.199 5.9528 29.0935 5.88238 28.9775 5.83437C28.8614 5.78637 28.737 5.76171 28.6114 5.76181H16.1835V1.13075C16.1835 0.773546 15.9821 0.445606 15.664 0.280687C15.5077 0.200253 15.3322 0.164539 15.1569 0.177481C14.9815 0.19042 14.8132 0.251514 14.6703 0.354029Z"/>
</mask>
<path d="M14.6703 0.354029L15.8341 1.98061L15.8365 1.97885L14.6703 0.354029ZM0.831509 10.2549L-0.332214 8.62835L-0.333037 8.62894L0.831509 10.2549ZM0.432129 11.0313L-1.56787 11.0293V11.0313H0.432129ZM0.432129 11.0335H-1.56788L-1.56787 11.0377L0.432129 11.0335ZM0.834549 11.8118L-0.324971 13.4414L-0.324194 13.4419L0.834549 11.8118ZM14.6734 21.6488L13.5146 23.279L13.5147 23.279L14.6734 21.6488ZM15.6659 21.7184L14.7508 19.94L14.7459 19.9426L15.6659 21.7184ZM16.1831 20.8687H14.1831L14.1831 20.8727L16.1831 20.8687ZM16.1831 16.2392L16.1832 14.2392L14.1831 14.2391V16.2392H16.1831ZM28.6125 16.2395L28.6133 14.2395H28.6126L28.6125 16.2395ZM29.5682 15.2835L27.5682 15.2836V15.2851L29.5682 15.2835ZM29.5679 6.71789L27.5679 6.71709V6.71798L29.5679 6.71789ZM28.9775 5.83437L29.7419 3.98623L28.9775 5.83437ZM28.6114 5.76181V7.76181L28.613 7.76181L28.6114 5.76181ZM16.1835 5.76181H14.1835L14.1835 7.76181L16.1835 7.76181V5.76181ZM15.664 0.280687L16.5847 -1.49483L16.5791 -1.49773L15.664 0.280687ZM13.5066 -1.27255L-0.332214 8.62835L1.99523 11.8815L15.8341 1.9806L13.5066 -1.27255ZM-0.333037 8.62894C-0.714657 8.90226 -1.0257 9.26253 -1.24043 9.67994L2.3165 11.5098C2.24066 11.6572 2.13082 11.7844 1.99605 11.8809L-0.333037 8.62894ZM-1.24043 9.67994C-1.45516 10.0973 -1.56741 10.5599 -1.56787 11.0293L2.43213 11.0332C2.43196 11.199 2.39233 11.3624 2.3165 11.5098L-1.24043 9.67994ZM-1.56787 11.0313V11.0335H2.43213V11.0313H-1.56787ZM-1.56787 11.0377C-1.56688 11.5084 -1.4536 11.972 -1.23743 12.39L2.31566 10.5528C2.39185 10.7001 2.43178 10.8635 2.43212 11.0294L-1.56787 11.0377ZM-1.23743 12.39C-1.02126 12.8081 -0.708439 13.1685 -0.324971 13.4414L1.99407 10.1822C2.12922 10.2784 2.23947 10.4054 2.31566 10.5528L-1.23743 12.39ZM-0.324194 13.4419L13.5146 23.279L15.8321 20.0187L1.99329 10.1817L-0.324194 13.4419ZM13.5147 23.279C13.9574 23.5937 14.4783 23.7803 15.0201 23.8182L15.2997 19.828C15.4913 19.8414 15.6755 19.9074 15.8321 20.0187L13.5147 23.279ZM15.0201 23.8182C15.562 23.8562 16.1038 23.7441 16.586 23.4942L14.7459 19.9426C14.9164 19.8542 15.108 19.8146 15.2997 19.828L15.0201 23.8182ZM16.581 23.4968C17.0645 23.248 17.4699 22.8706 17.7525 22.4062L14.3357 20.3265C14.4359 20.1619 14.5795 20.0282 14.7508 19.94L16.581 23.4968ZM17.7525 22.4062C18.0352 21.9418 18.1842 21.4084 18.1831 20.8647L14.1831 20.8727C14.1827 20.6801 14.2355 20.491 14.3357 20.3265L17.7525 22.4062ZM18.1831 20.8687V16.2392H14.1831V20.8687H18.1831ZM16.1831 18.2392L28.6125 18.2395L28.6126 14.2395L16.1832 14.2392L16.1831 18.2392ZM28.6118 18.2395C29.0001 18.2397 29.3848 18.1633 29.7436 18.0147L28.2132 14.319C28.3401 14.2665 28.4761 14.2395 28.6133 14.2395L28.6118 18.2395ZM29.7436 18.0147C30.1025 17.8661 30.4285 17.6482 30.7031 17.3735L27.8741 14.5457C27.9711 14.4486 28.0864 14.3716 28.2132 14.319L29.7436 18.0147ZM30.7031 17.3735C30.9776 17.0989 31.1954 16.7727 31.3438 16.4138L27.6476 14.8849C27.7001 14.7581 27.777 14.6428 27.8741 14.5457L30.7031 17.3735ZM31.3438 16.4138C31.4923 16.0549 31.5686 15.6703 31.5682 15.2819L27.5682 15.2851C27.5681 15.1478 27.5951 15.0118 27.6476 14.8849L31.3438 16.4138ZM31.5682 15.2834L31.5679 6.7178L27.5679 6.71798L27.5682 15.2836L31.5682 15.2834ZM31.5679 6.71868C31.568 6.33024 31.4916 5.94557 31.343 5.58668L27.6473 7.11705C27.5948 6.99024 27.5678 6.85434 27.5679 6.71709L31.5679 6.71868ZM31.343 5.58668C31.1944 5.22781 30.9765 4.90173 30.7017 4.6271L27.8739 7.45608C27.7768 7.35904 27.6998 7.24383 27.6473 7.11705L31.343 5.58668ZM30.7017 4.6271C30.427 4.35247 30.1009 4.1347 29.7419 3.98623L28.213 7.68251C28.0862 7.63006 27.971 7.55312 27.8739 7.45608L30.7017 4.6271ZM29.7419 3.98623C29.383 3.83776 28.9983 3.7615 28.6098 3.76181L28.613 7.76181C28.4758 7.76192 28.3398 7.73497 28.213 7.68251L29.7419 3.98623ZM28.6114 3.76181H16.1835V7.76181H28.6114V3.76181ZM18.1835 5.76181V1.13075H14.1835V5.76181H18.1835ZM18.1835 1.13075C18.1835 0.0174751 17.5577 -0.990278 16.5847 -1.49482L14.7434 2.0562C14.4065 1.88149 14.1835 1.52962 14.1835 1.13075H18.1835ZM16.5791 -1.49773C16.0953 -1.74663 15.5522 -1.85714 15.0097 -1.81709L15.3041 2.17205C15.1122 2.18622 14.9201 2.14714 14.749 2.0591L16.5791 -1.49773ZM15.0097 -1.81709C14.4671 -1.77705 13.9461 -1.588 13.5042 -1.27079L15.8365 1.97885C15.6802 2.09103 15.496 2.15789 15.3041 2.17205L15.0097 -1.81709Z" fill="#E36746" mask="url(#path-1-inside-1_2001_5939)"/>
</svg>
